<?xml version="1.0" standalone="no"?>
<!DOCTYPE svg PUBLIC "-//W3C//DTD SVG 1.1//EN" "http://www.w3.org/Graphics/SVG/1.1/DTD/svg11.dtd" >
<svg>
<metadata>
Created by FontForge 20090622 at Mon May  2 06:48:59 2016
 By deploy user
----------------------------------------------------------- 
</metadata>
<defs>
<font id="FuturaCnd-Bold" horiz-adv-x="768" >
  <font-face 
    font-family="FuturaCnd-Bold"
    font-weight="400"
    font-style="italic"
    font-stretch="normal"
    units-per-em="1000"
    panose-1="0 0 0 0 0 0 0 0 0 0"
    ascent="800"
    descent="-200"
    x-height="453"
    cap-height="667"
    bbox="-10 -228 862 772"
    underline-thickness="50"
    underline-position="-55"
    slope="17560"
    unicode-range="U+0020-U+F002"
  />
<missing-glyph 
 />
    <glyph glyph-name=".notdef" 
 />
    <glyph glyph-name="glyph1" horiz-adv-x="0" 
 />
    <glyph glyph-name="space" horiz-adv-x="236" 
 />
    <glyph glyph-name="exclam" unicode=" " horiz-adv-x="236" 
 />
    <glyph glyph-name="exclam" unicode="&#xa0;" horiz-adv-x="236" 
 />
    <glyph glyph-name="quotedbl" unicode="!" horiz-adv-x="289" 
d="M56 85q0 43 25.5 73t62.5 30t62.5 -30t25.5 -73t-25.5 -73t-62.5 -30t-62.5 30t-25.5 73v0zM73 226v440h142v-440h-142v0z" />
    <glyph glyph-name="numbersign" unicode="&#x22;" horiz-adv-x="349" 
d="M135 399h-80l-20 268h121l-21 -268v0zM293 399h-80l-20 268h121l-21 -268v0z" />
    <glyph glyph-name="dollar" unicode="#" horiz-adv-x="510" 
d="M477 298v-115h-90l-21 -183h-112l21 183h-73l-20 -183h-111l21 183h-78v115h90l9 85h-77v114h90l19 170h110l-19 -170h73l19 170h112l-19 -170h76v-114h-88l-9 -85h77v0zM297 383h-73l-10 -85h73l10 85v0z" />
    <glyph glyph-name="percent" unicode="$" horiz-adv-x="510" 
d="M303 772v-106q43 -5 75 -17t62 -35l-55 -127q-17 15 -33 24.5t-32 14.5q-7 2 -15 3t-16 1q-27 0 -45.5 -15t-18.5 -36q0 -23 18.5 -37t45.5 -27q13 -5 26.5 -11l28.5 -13q44 -21 81 -58.5t37 -114.5q0 -96 -42.5 -144t-116.5 -72v-111h-69v106l-16.5 2t-16.5 1
q-42 7 -82 26t-71 51l62 134l25.5 -24.5t25.5 -20.5q22 -14 43.5 -21.5t41.5 -7.5q30 0 50 18.5t20 45.5q0 28 -20.5 42t-50.5 25l-23 8t-23 9q-45 19 -81.5 56.5t-36.5 122.5v7.5v6.5q4 51 28 97t60 69l9.5 5.5t8.5 4.5q8 4 16.5 6l21.5 5q2 0 4.5 0.5t4.5 0.5v106h69v0z
" />
    <glyph glyph-name="ampersand" unicode="%" horiz-adv-x="761" 
d="M422 156q0 74 43 118.5t112 44.5q71 0 113.5 -45t42.5 -119q0 -73 -43.5 -117.5t-112.5 -44.5q-70 0 -112.5 44.5t-42.5 118.5v0zM513 156q0 -31 19 -53t45 -22q27 0 45.5 22t18.5 53t-18.5 53t-45.5 22q-26 0 -45 -22t-19 -53v0zM507 667h74l-329 -667h-73l328 667v0z
M28 511q0 74 42.5 118.5t112.5 44.5q71 0 113 -44.5t42 -118.5q0 -73 -43 -118.5t-112 -45.5q-70 0 -112.5 45t-42.5 119v0zM119 511q0 -31 19 -53t45 -22t45 22t19 53q0 32 -19 53.5t-45 21.5t-45 -22t-19 -53v0z" />
    <glyph glyph-name="quotesingle" unicode="&#x26;" horiz-adv-x="643" 
d="M366 342l70 -87l25 27t18 21q2 3 4.5 6t4.5 6q5 7 10.5 15.5l11.5 18.5l83 -94q-17 -27 -36.5 -50.5l-40.5 -46.5l127 -158h-184l-49 61q-52 -40 -100 -59.5t-94 -19.5q-80 0 -131 53t-51 138q0 80 40 121.5t95 71.5q-3 5 -6.5 9.5t-6.5 9.5q-17 27 -28.5 56t-11.5 65
q0 76 51.5 127.5t125.5 51.5q76 0 126.5 -52t50.5 -129q0 -61 -31.5 -98.5t-72.5 -63.5v0zM240 278q-18 -13 -30 -25.5t-18 -24.5q-3 -7 -4.5 -13t-1.5 -12q0 -30 18.5 -48.5t49.5 -18.5q10 0 20.5 2.5t20.5 6.5q9 4 17.5 9t16.5 11l-89 113v0zM301 423q7 6 13.5 11t11.5 11
q14 14 21 29t7 32q0 28 -15 44.5t-38 16.5q-19 0 -32 -16.5t-13 -40.5q0 -16 11 -37t34 -50v0z" />
    <glyph glyph-name="parenleft" unicode="'" horiz-adv-x="190" 
d="M135 399h-80l-20 268h121l-21 -268v0z" />
    <glyph glyph-name="parenright" unicode="(" horiz-adv-x="287" 
d="M166 761l82 -55q-43 -87 -64.5 -192t-21.5 -225q0 -15 0.5 -29.5t1.5 -28.5q5 -103 27.5 -198.5t56.5 -157.5l-82 -56q-14 24 -23.5 42.5t-17.5 36.5q-5 12 -9.5 24t-8.5 26q-3 9 -5.5 18.5l-5.5 20.5q-9 33 -16 70t-12 75q-5 41 -8 81.5t-3 75.5q0 26 1 52.5t3 52.5
q8 97 33 192t72 175v0z" />
    <glyph glyph-name="asterisk" unicode=")" horiz-adv-x="287" 
d="M139 -181l-82 55q43 87 65 191.5t22 224.5q0 13 -0.5 26.5t-0.5 27.5q-5 104 -28 201.5t-58 160.5l82 55q14 -23 23.5 -41.5t16.5 -35.5q6 -13 10.5 -26.5l9.5 -29.5q2 -8 4.5 -16.5t4.5 -18.5q9 -34 16.5 -72t12.5 -77q5 -40 8 -79t3 -74q0 -21 -0.5 -42t-2.5 -42
q-6 -103 -31.5 -202.5t-74.5 -184.5v-1z" />
    <glyph glyph-name="plus" unicode="*" horiz-adv-x="510" 
d="M222 734h67l-14 -121l95 52l20 -75l-101 -22l71 -89l-55 -47l-49 107l-50 -107l-55 47l72 88l-102 23l20 75l94 -52l-13 121v0z" />
    <glyph glyph-name="comma" unicode="+" horiz-adv-x="510" 
d="M54 390h153v180h96v-180h153v-113h-153v-180h-96v180h-153v113v0z" />
    <glyph glyph-name="hyphen" unicode="," horiz-adv-x="258" 
d="M90 169h128l-138 -293h-88l98 293v0z" />
    <glyph glyph-name="period" unicode="-" horiz-adv-x="215" 
d="M0 303h215v-133h-215v133v0z" />
    <glyph glyph-name="slash" unicode="." horiz-adv-x="258" 
d="M41 85q0 43 25.5 73t61.5 30q38 0 63.5 -30t25.5 -73t-25.5 -73t-63.5 -30q-36 0 -61.5 30t-25.5 73v0z" />
    <glyph glyph-name="zero" unicode="/" horiz-adv-x="421" 
d="M309 734h108l-311 -887h-107l310 887v0z" />
    <glyph glyph-name="one" unicode="0" horiz-adv-x="510" 
d="M15 334q0 83 16 144.5t49 110.5q35 51 79 77t97 26t97 -26t78 -77q34 -49 49.5 -110.5t15.5 -144.5q0 -82 -15.5 -144t-49.5 -112q-34 -51 -78 -76.5t-97 -25.5t-97 25.5t-79 76.5q-33 50 -49 112t-16 144v0zM162 332q0 -91 26 -148t68 -57q41 0 67 57t26 148
q0 92 -26 149t-67 57q-42 0 -68 -57t-26 -149v0z" />
    <glyph glyph-name="two" unicode="1" horiz-adv-x="510" 
d="M199 520h-81v147h228v-667h-147v520v0z" />
    <glyph glyph-name="three" unicode="2" horiz-adv-x="510" 
d="M292 147h185v-147h-455l145 177l28.5 36l32.5 43l32 48t28 51q14 27 22.5 54.5t8.5 51.5q0 35 -19.5 60.5t-45.5 25.5q-28 0 -45 -22t-17 -60v-1.5v-0.5q0 -5 0.5 -10.5t2.5 -14.5h-163q0 119 64 188t162 69q92 0 152.5 -68.5t60.5 -171.5q0 -47 -13 -87.5t-41 -79.5
l-14.5 -18.5t-15.5 -18.5l-95 -104v0z" />
    <glyph glyph-name="four" unicode="3" horiz-adv-x="510" 
d="M227 293v117h5.5h4.5q2 -1 3.5 -1h2.5q29 0 46 20.5t17 54.5q0 29 -16 47.5t-42 18.5q-27 0 -42.5 -20t-16.5 -56h-137q0 3 0.5 6t0.5 5q3 24 6.5 40.5t8.5 30.5l6 13.5t7 13.5q26 51 71.5 80t100.5 29q88 0 139 -51t51 -138q0 -50 -14 -84t-46 -58q44 -17 68.5 -63
t24.5 -113q0 -94 -63 -154t-161 -60q-88 0 -157.5 67t-72.5 175h151q2 -45 23.5 -69t59.5 -24q32 0 53 25.5t21 63.5q0 36 -23 62t-55 26h-3.5h-3.5q-3 -1 -7.5 -1.5t-10.5 -2.5v0z" />
    <glyph glyph-name="five" unicode="4" horiz-adv-x="510" 
d="M420 270h69v-133h-69v-137h-136v137h-275v111l218 419h193v-397v0zM284 270v257l-134 -257h134v0z" />
    <glyph glyph-name="six" unicode="5" horiz-adv-x="510" 
d="M421 520h-197l-10 -73q11 2 18.5 2.5t14.5 1.5h6h7q87 0 144.5 -65.5t57.5 -165.5q0 -112 -64 -176t-174 -64q-53 0 -97.5 14.5t-87.5 45.5l22 162q25 -25 48.5 -41.5t46.5 -25.5q14 -6 28.5 -8.5t28.5 -2.5q44 0 70.5 29t26.5 75q0 47 -35.5 77.5t-90.5 30.5
q-16 0 -30 -2t-29 -6q-11 -3 -23 -8t-25 -11l49 358h295v-147v0z" />
    <glyph glyph-name="seven" unicode="6" horiz-adv-x="510" 
d="M227 666h167l-160 -226q21 9 34.5 14t26.5 6h4.5h4.5q86 0 139 -65t53 -170q0 -115 -68.5 -183t-184.5 -68q-99 0 -163.5 69.5t-64.5 176.5q0 33 8.5 71t24.5 78q10 26 23.5 52t29.5 50l126 195v0zM346 220q0 46 -27.5 78t-66.5 32q-38 0 -65.5 -32.5t-27.5 -77.5
q0 -46 27.5 -78t65.5 -32t66 32t28 78v0z" />
    <glyph glyph-name="eight" unicode="7" horiz-adv-x="510" 
d="M296 520h-236v147h464l-324 -667h-163l259 520v0z" />
    <glyph glyph-name="nine" unicode="8" horiz-adv-x="510" 
d="M151 352q-43 21 -66 58t-23 86q0 84 54 136.5t141 52.5t139.5 -52t52.5 -138q0 -50 -21 -82t-72 -61q47 -22 81.5 -62.5t34.5 -104.5q0 -88 -60.5 -144.5t-154.5 -56.5q-97 0 -157.5 56t-60.5 145q0 64 33 104.5t79 62.5v0zM188 201q0 -33 20 -56.5t48 -23.5t48 23.5
t20 56.5t-20 56.5t-48 23.5t-48 -23.5t-20 -56.5v0zM193 496q0 -31 18.5 -52.5t44.5 -21.5t44 21.5t18 52.5q0 30 -18 51.5t-44 21.5t-44.5 -21.5t-18.5 -51.5v0z" />
    <glyph glyph-name="colon" unicode="9" horiz-adv-x="510" 
d="M284 0h-168l162 227q-20 -10 -33.5 -14.5t-25.5 -5.5q-3 -1 -6 -1h-6q-85 0 -138.5 65.5t-53.5 170.5q0 115 69 183t185 68q98 0 162.5 -69.5t64.5 -176.5q0 -33 -8 -70.5t-24 -76.5q-10 -27 -23.5 -53.5t-29.5 -51.5l-127 -195v0zM166 447q0 -45 27.5 -77.5t65.5 -32.5
q39 0 66.5 32.5t27.5 77.5q0 46 -27.5 78t-66.5 32q-38 0 -65.5 -32t-27.5 -78v0z" />
    <glyph glyph-name="semicolon" unicode=":" horiz-adv-x="258" 
d="M41 85q0 43 25.5 73t61.5 30q38 0 63.5 -30t25.5 -73t-25.5 -73t-63.5 -30q-36 0 -61.5 30t-25.5 73v0zM41 383q0 43 25.5 73t61.5 30q38 0 63.5 -30t25.5 -73t-26 -73t-63 -30q-36 0 -61.5 30t-25.5 73v0z" />
    <glyph glyph-name="less" unicode=";" horiz-adv-x="258" 
d="M90 169h128l-138 -293h-88l98 293v0zM61 383q0 43 25.5 73.5t62.5 30.5t62.5 -30t25.5 -74q0 -43 -25.5 -73t-62.5 -30t-62.5 30t-25.5 73v0z" />
    <glyph glyph-name="equal" unicode="&#x3c;" horiz-adv-x="425" 
d="M396 609v-128l-252 -147l252 -148v-126l-368 221v107l368 221v0z" />
    <glyph glyph-name="greater" unicode="=" horiz-adv-x="510" 
d="M54 302h402v-113h-402v113v0zM54 479h402v-113h-402v113v0z" />
    <glyph glyph-name="question" unicode="&#x3e;" horiz-adv-x="425" 
d="M28 60v127l253 148l-253 147v127l368 -221v-108l-368 -220v0z" />
    <glyph glyph-name="at" unicode="?" horiz-adv-x="465" 
d="M141 84q0 43 26 73.5t63 30.5q36 0 61.5 -30t25.5 -74q0 -43 -25.5 -72.5t-61.5 -29.5q-37 0 -63 29.5t-26 72.5v0zM156 224v172q8 -2 13.5 -3l10.5 -2h2.5h3.5q42 0 70.5 25t28.5 62q0 29 -16 48t-39 19q-24 0 -37.5 -17.5t-14.5 -49.5h-150q2 92 59 149.5t147 57.5
q79 0 137.5 -60.5t58.5 -141.5q0 -79 -38 -125.5t-98 -70.5v-63h-138v0z" />
    <glyph glyph-name="A" unicode="@" horiz-adv-x="585" 
d="M451 502l-23 -221v-10.5v-10.5q-1 -5 -1 -10.5v-10.5q0 -10 1.5 -14t7.5 -4q27 0 45.5 29t28.5 64q4 16 6.5 31.5t2.5 28.5q0 101 -61 166.5t-156 65.5q-97 0 -163 -79.5t-66 -195.5q0 -124 68 -197t171 -73q29 0 54.5 5.5t50.5 14.5q14 6 29 13.5l31 15.5q1 0 2.5 1.5
t5.5 2.5q0 1 1.5 2t3.5 2l27 -81q-29 -20 -63 -33t-69 -20q-19 -3 -37 -5t-36 -2q-133 0 -226 96t-93 258q0 151 89.5 253.5t220.5 102.5q125 0 207 -89.5t82 -224.5q0 -95 -49 -165t-117 -70q-20 0 -35.5 12t-26.5 31q-19 -22 -42.5 -33.5t-51.5 -11.5q-57 0 -94.5 53.5
t-37.5 133.5t43.5 133t110.5 53q14 0 25.5 -3.5t22.5 -8.5l14 -8t14 -9l5 22h78v0zM360 345q0 29 -20 49.5t-48 20.5q-30 0 -49 -28.5t-19 -72.5q0 -34 15 -58.5t36 -24.5q37 0 61 32.5t24 81.5v0z" />
    <glyph glyph-name="B" unicode="A" horiz-adv-x="604" 
d="M404 116h-203l-39 -116h-156l218 667h160l214 -667h-158l-36 116v0zM364 248l-61 212l-62 -212h123v0z" />
    <glyph glyph-name="C" unicode="B" horiz-adv-x="525" 
d="M60 0v667h219q79 0 119 -45.5t40 -134.5q0 -46 -15 -77.5t-47 -53.5q58 -13 86.5 -52.5t28.5 -111.5q0 -90 -51.5 -141t-143.5 -51h-236v0zM207 135h33q53 0 78 16t25 53q0 41 -23 56t-83 15h-30v-140v0zM207 404h14t14 1q26 2 47 14.5t21 49.5q0 38 -21 50t-47 14
q-7 1 -14 1h-14v-130v0z" />
    <glyph glyph-name="D" unicode="C" horiz-adv-x="502" 
d="M468 647v-207q-25 36 -56.5 54.5t-68.5 18.5q-67 0 -111 -50t-44 -127q0 -85 42.5 -135.5t115.5 -50.5q32 0 63 18t59 52v-205q-6 -3 -12.5 -5.5t-13.5 -4.5q-25 -9 -51 -15.5t-54 -6.5q-127 0 -215 100t-88 247q0 150 88.5 250.5t220.5 100.5q26 0 56.5 -8.5t68.5 -25.5
v0z" />
    <glyph glyph-name="E" unicode="D" horiz-adv-x="591" 
d="M60 0v667h217q113 0 196.5 -99.5t83.5 -234.5q0 -134 -83.5 -233.5t-196.5 -99.5h-217v0zM207 147h34q72 0 116.5 50t44.5 136q0 38 -10.5 72t-30.5 59q-31 41 -71 48.5t-83 7.5v-373v0z" />
    <glyph glyph-name="F" unicode="E" horiz-adv-x="416" 
d="M382 520h-175v-111h165v-147h-165v-115h175v-147h-322v667h322v-147v0z" />
    <glyph glyph-name="G" unicode="F" horiz-adv-x="412" 
d="M384 520h-177v-111h161v-147h-161v-262h-147v667h324v-147v0z" />
    <glyph glyph-name="H" unicode="G" horiz-adv-x="661" 
d="M335 370h292q-1 -89 -11 -143t-36 -101q-1 -2 -2.5 -4.5t-2.5 -4.5q-41 -73 -102 -106t-152 -33q-124 0 -205.5 100.5t-81.5 252.5q0 158 85 257.5t218 99.5q94 0 157 -45t103 -142l-140 -68q-19 53 -49 79t-73 26q-63 0 -105 -59t-42 -148q0 -93 42.5 -152t108.5 -59
q51 0 80.5 29t36.5 87h-121v134v0z" />
    <glyph glyph-name="I" unicode="H" horiz-adv-x="626" 
d="M207 409h212v258h148v-667h-148v275h-212v-275h-147v667h147v-258v0z" />
    <glyph glyph-name="J" unicode="I" horiz-adv-x="266" 
d="M207 667v-667h-147v667h147v0z" />
    <glyph glyph-name="K" unicode="J" horiz-adv-x="398" 
d="M338 667v-461q0 -46 -5.5 -74.5t-19.5 -53.5q-4 -7 -8.5 -13l-9.5 -13q-28 -34 -64.5 -51.5t-77.5 -17.5q-47 0 -82.5 23t-65.5 75l96 116q3 -30 16.5 -48t32.5 -18q21 0 31 19.5t10 58.5l-1 37v421h148v0z" />
    <glyph glyph-name="L" unicode="K" horiz-adv-x="595" 
d="M207 392l180 275h182l-226 -316l246 -351h-190l-192 289v-289h-147v667h147v-275v0z" />
    <glyph glyph-name="M" unicode="L" horiz-adv-x="400" 
d="M207 667v-520h176v-147h-323v667h147v0z" />
    <glyph glyph-name="N" unicode="M" horiz-adv-x="778" 
d="M34 0l96 667h145l115 -356l122 356h147l85 -667h-147l-42 384l-137 -384h-58l-131 384l-49 -384h-146v0z" />
    <glyph glyph-name="O" unicode="N" horiz-adv-x="684" 
d="M60 0v667h147l271 -408v408h147v-667h-147l-271 408v-408h-147v0z" />
    <glyph glyph-name="P" unicode="O" horiz-adv-x="695" 
d="M34 331q0 152 89.5 254t224.5 102q134 0 223.5 -102t89.5 -254t-89.5 -253t-223.5 -101q-135 0 -224.5 101t-89.5 253v0zM188 331q0 -77 47 -132t113 -55t112.5 55t46.5 132q0 78 -46.5 133t-112.5 55q-67 0 -113.5 -55t-46.5 -133v0z" />
    <glyph glyph-name="Q" unicode="P" horiz-adv-x="509" 
d="M207 221v-221h-147v667h234q88 0 142 -56t54 -164q0 -110 -48.5 -168t-142.5 -58h-92v0zM207 361h49q42 0 61.5 20t19.5 64q0 41 -20.5 61.5t-59.5 20.5h-50v-166v0z" />
    <glyph glyph-name="R" unicode="Q" horiz-adv-x="695" 
d="M683 -18l-135 -25l-46 63q-10 -7 -19 -12.5t-19 -8.5q-24 -11 -49.5 -16t-58.5 -5q-9 0 -19 0.5t-19 1.5q-35 4 -68.5 14t-59.5 26q-69 43 -112.5 129.5t-43.5 183.5q0 95 42.5 179t112.5 130q33 22 74 33t87 11q135 0 223 -100.5t88 -255.5q0 -58 -14 -105.5t-39 -92.5
l-10 -18t-11 -18l96 -114v0zM441 280l39 -49q2 4 4.5 8t4.5 8q9 20 13.5 40.5t4.5 42.5q0 76 -46.5 132t-110.5 56q-68 0 -115 -54.5t-47 -133.5q0 -80 45 -132.5t115 -52.5q5 0 9.5 0.5t9.5 0.5q5 1 11 2.5t15 4.5l-90 107l138 20v0z" />
    <glyph glyph-name="S" unicode="R" horiz-adv-x="533" 
d="M353 273l177 -273h-182l-141 256v-256h-147v667h229q83 0 135 -54.5t52 -156.5q0 -70 -33 -118.5t-90 -64.5v0zM207 368h15t16 1q32 2 59.5 18t27.5 64q0 45 -26 61t-57 19q-9 1 -18 1.5t-17 0.5v-165v0z" />
    <glyph glyph-name="T" unicode="S" horiz-adv-x="485" 
d="M429 629l-58 -135q-19 17 -36.5 27.5t-34.5 14.5q-6 2 -11.5 2.5t-11.5 0.5q-30 0 -48 -16.5t-18 -42.5q0 -24 19.5 -37.5t48.5 -24.5q12 -5 25.5 -9.5t27.5 -10.5q45 -19 82.5 -56.5t37.5 -118.5q0 -11 -1 -23.5t-3 -25.5q-3 -21 -7.5 -41t-9.5 -33q-23 -52 -76.5 -84
t-116.5 -32q-55 0 -107 18.5t-97 56.5l63 139q25 -26 49.5 -42t48.5 -22q8 -2 16 -3t16 -1q32 0 51.5 18t19.5 48q0 29 -22 43.5t-53 26.5l-22.5 8t-22.5 9q-46 18 -83.5 54.5t-37.5 120.5q0 101 53 163t140 62q18 0 36 -2.5t36 -6.5q27 -7 54 -18t53 -27v0z" />
    <glyph glyph-name="U" unicode="T" horiz-adv-x="400" 
d="M273 520v-520h-148v520h-120v147h389v-147h-121v0z" />
    <glyph glyph-name="V" unicode="U" horiz-adv-x="613" 
d="M207 667v-361q0 -48 1.5 -68.5t7.5 -35.5q1 -3 3 -7l4 -8q13 -25 34 -38t47 -13q29 0 53 14.5t34 39.5q2 4 3.5 7.5t2.5 6.5q6 16 7.5 37t1.5 65v361h147v-384q0 -69 -10 -112.5t-36 -81.5q-2 -3 -4.5 -6t-4.5 -6q-35 -47 -84.5 -70t-113.5 -23q-62 0 -116.5 26.5
t-83.5 72.5q-22 35 -31 80t-9 120v384h147v0z" />
    <glyph glyph-name="W" unicode="V" horiz-adv-x="594" 
d="M161 667l136 -406l137 406h160l-241 -667h-115l-238 667h161v0z" />
    <glyph glyph-name="X" unicode="W" horiz-adv-x="862" 
d="M154 667l98 -431l120 431h118l111 -431l107 431h154l-181 -667h-151l-102 386l-109 -386h-150l-169 667h154v0z" />
    <glyph glyph-name="Y" unicode="X" horiz-adv-x="604" 
d="M222 356l-182 311h182l84 -173l88 173h181l-185 -311l214 -356h-178l-121 217l-127 -217h-178l222 356v0z" />
    <glyph glyph-name="Z" unicode="Y" horiz-adv-x="544" 
d="M195 320l-205 347h176l107 -182l103 182h178l-211 -347v-320h-148v320v0z" />
    <glyph glyph-name="bracketleft" unicode="Z" horiz-adv-x="536" 
d="M258 147h238v-147h-485l268 520h-223v147h469l-267 -520v0z" />
    <glyph glyph-name="backslash" unicode="[" horiz-adv-x="286" 
d="M176 640v-699h76v-94h-184v887h184v-94h-76v0z" />
    <glyph glyph-name="bracketright" unicode="\" horiz-adv-x="421" 
d="M113 734l309 -887h-107l-310 887h108v0z" />
    <glyph glyph-name="asciicircum" unicode="]" horiz-adv-x="286" 
d="M145 -60v700h-77v94h184v-887h-184v93h77v0z" />
    <glyph glyph-name="underscore" unicode="^" horiz-adv-x="425" 
d="M118 335h-114l137 335h143l137 -335h-114l-94 233l-95 -233v0z" />
    <glyph glyph-name="grave" unicode="_" horiz-adv-x="425" 
d="M0 -47h425v-115h-425v115v0z" />
    <glyph glyph-name="a" unicode="`" horiz-adv-x="425" 
d="M82 656l86 73l107 -154l-62 -55l-131 136v0z" />
    <glyph glyph-name="b" unicode="a" horiz-adv-x="527" 
d="M344 453h136v-453h-136v50q-22 -32 -50.5 -48t-63.5 -16q-85 0 -142 68.5t-57 172.5q0 102 55.5 171.5t137.5 69.5q38 0 66.5 -14t53.5 -45v44v0zM173 226q0 -43 25.5 -73t61.5 -30q37 0 62.5 30t25.5 73q0 44 -25.5 74t-62.5 30q-36 0 -61.5 -30.5t-25.5 -73.5v0z" />
    <glyph glyph-name="c" unicode="b" horiz-adv-x="527" 
d="M182 733v-324q26 31 54.5 45t65.5 14q82 0 138 -69.5t56 -171.5q0 -104 -57 -172.5t-143 -68.5q-35 0 -63.5 16t-50.5 48v-50h-136v733h136v0zM354 226q0 44 -25.5 74t-62.5 30q-36 0 -62 -30.5t-26 -73.5t26 -73t62 -30q37 0 62.5 30t25.5 73v0z" />
    <glyph glyph-name="d" unicode="c" horiz-adv-x="368" 
d="M337 443v-137q-13 11 -25 17.5t-23 9.5q-5 1 -9.5 1.5t-9.5 0.5q-43 0 -70 -29.5t-27 -78.5t26 -80t69 -31q18 0 35.5 7.5t33.5 23.5v-136q-13 -7 -24.5 -11.5t-23.5 -7.5t-23.5 -4.5t-24.5 -1.5q-90 0 -150 69t-60 173q0 102 62 171t154 69q15 0 28.5 -2t26.5 -6
q8 -3 17 -7.5t18 -9.5v0z" />
    <glyph glyph-name="e" unicode="d" horiz-adv-x="527" 
d="M344 733h136v-733h-136v50q-22 -32 -50.5 -48t-63.5 -16q-85 0 -142 68.5t-57 172.5q0 102 55.5 171.5t137.5 69.5q38 0 66.5 -14t53.5 -45v324v0zM173 226q0 -43 25.5 -73t61.5 -30q37 0 62.5 30t25.5 73q0 44 -25.5 74t-62.5 30q-36 0 -61.5 -30.5t-25.5 -73.5v0z" />
    <glyph glyph-name="f" unicode="e" horiz-adv-x="486" 
d="M455 197h-287q1 -52 21.5 -77t62.5 -25q24 0 38.5 10t27.5 33h131q-20 -82 -72 -118.5t-123 -36.5q-103 0 -163 65t-60 175q0 122 62 182.5t160 60.5q105 0 153.5 -77.5t48.5 -191.5v0zM328 290q-7 34 -27.5 53.5t-49.5 19.5q-33 0 -53.5 -19t-25.5 -54h156v0z" />
    <glyph glyph-name="g" unicode="f" horiz-adv-x="294" 
d="M194 320v-320h-136v320h-49v133h49v69q0 64 13.5 102.5t47.5 70.5q16 16 35 27t38 16q9 3 17.5 4t16.5 1q11 0 19 -0.5t15 -2.5t14 -5t16 -8v-140q-11 7 -19 10t-15 5q-3 0 -6.5 0.5t-7.5 0.5q-28 0 -38 -19.5t-10 -73.5v-57h96v-133h-96v0z" />
    <glyph glyph-name="h" unicode="g" horiz-adv-x="524" 
d="M478 453v-422q0 -66 -8.5 -104t-33.5 -71q-2 -2 -4.5 -5t-4.5 -6q-32 -37 -74 -55t-98 -18q-9 0 -18 0.5t-18 2.5q-63 8 -117 49.5t-66 120.5l153 -1q8 -22 23.5 -33t40.5 -11q63 0 76 46t13 104q-10 -11 -19.5 -20t-19.5 -16q-19 -13 -38.5 -18t-45.5 -5
q-84 0 -136 64.5t-52 170.5q0 101 57 170.5t139 69.5q36 0 61 -12.5t49 -40.5q1 -2 2.5 -3.5t2.5 -3.5v47h136v0zM173 228q0 -43 26 -73.5t62 -30.5t62 30.5t26 73.5t-26 73t-62 30t-62 -30t-26 -73v0z" />
    <glyph glyph-name="i" unicode="h" horiz-adv-x="499" 
d="M46 733h136v-337q4 5 7.5 10t7.5 9q23 26 48 37t62 11q71 0 108 -46.5t37 -128.5v-288h-136v229q0 59 -14 83t-49 24q-34 0 -52.5 -24.5t-18.5 -68.5v-243h-136v733v0z" />
    <glyph glyph-name="j" unicode="i" horiz-adv-x="229" 
d="M182 453v-453h-136v453h136v0zM37 627q0 38 22.5 64t54.5 26t54 -26t22 -64q0 -37 -22 -63.5t-54 -26.5t-54.5 26.5t-22.5 63.5v0z" />
    <glyph glyph-name="k" unicode="j" horiz-adv-x="229" 
d="M182 453v-680h-136v680h136v0zM37 627q0 38 22.5 64t54.5 26t54 -26t22 -64q0 -37 -22 -63.5t-54 -26.5t-54.5 26.5t-22.5 63.5v0z" />
    <glyph glyph-name="l" unicode="k" horiz-adv-x="524" 
d="M183 733v-443l143 163h186l-193 -209l205 -244h-192l-149 185v-185h-136v733h136v0z" />
    <glyph glyph-name="m" unicode="l" horiz-adv-x="229" 
d="M182 733v-733h-136v733h136v0z" />
    <glyph glyph-name="n" unicode="m" horiz-adv-x="745" 
d="M47 453h136v-55q8 10 16.5 18t16.5 14q21 17 43.5 24t51.5 7q43 0 74 -20.5t54 -64.5q22 43 54.5 64t75.5 21q68 0 99 -46t31 -120v-295h-136v224q0 63 -13 87.5t-46 24.5q-31 0 -47.5 -28.5t-16.5 -83.5v-224h-136v224q0 65 -12.5 90t-46.5 25q-33 0 -47.5 -27.5
t-14.5 -87.5v-224h-136v453v0z" />
    <glyph glyph-name="o" unicode="n" horiz-adv-x="499" 
d="M46 453h136v-57q4 5 7.5 10t7.5 9q23 26 48 37t62 11q71 0 108 -46.5t37 -128.5v-288h-136v229q0 59 -14 83t-49 24q-34 0 -52.5 -24.5t-18.5 -68.5v-243h-136v453v0z" />
    <glyph glyph-name="p" unicode="o" horiz-adv-x="526" 
d="M31 227q0 107 65.5 175t167.5 68q101 0 166 -68t65 -175t-64.5 -175t-166.5 -68t-167.5 68t-65.5 175v0zM175 228q0 -43 26 -73.5t63 -30.5q36 0 61.5 30.5t25.5 73.5q0 44 -25.5 74t-61.5 30q-37 0 -63 -30t-26 -74v0z" />
    <glyph glyph-name="q" unicode="p" horiz-adv-x="527" 
d="M182 -227h-136v680h136v-50q22 32 50.5 48.5t63.5 16.5q86 0 143 -69t57 -173q0 -103 -56 -171.5t-138 -68.5q-37 0 -65.5 13.5t-54.5 44.5v-271v0zM354 226q0 44 -25.5 74t-62.5 30q-36 0 -62 -30t-26 -73t26 -73.5t62 -30.5q37 0 62.5 30t25.5 73v0z" />
    <glyph glyph-name="r" unicode="q" horiz-adv-x="527" 
d="M344 -227v271q-25 -31 -53.5 -44.5t-66.5 -13.5q-82 0 -137.5 68.5t-55.5 171.5q0 104 57 173t142 69q35 0 63.5 -16.5t50.5 -48.5v50h136v-680h-136v0zM173 226q0 -43 25.5 -73t61.5 -30q37 0 62.5 30.5t25.5 73.5t-25.5 73t-62.5 30q-36 0 -61.5 -30.5t-25.5 -73.5v0z
" />
    <glyph glyph-name="s" unicode="r" horiz-adv-x="349" 
d="M46 453h136v-74q23 43 53 62t74 19h3.5h2.5q4 0 8.5 -0.5t11.5 -1.5v-153q-9 5 -15.5 8t-13.5 5q-5 2 -11 2.5t-14 0.5q-51 0 -75 -31t-24 -96v-194h-136v453v0z" />
    <glyph glyph-name="t" unicode="s" horiz-adv-x="383" 
d="M348 440l-46 -104q-16 9 -30.5 14.5t-29.5 7.5q-3 1 -6.5 1h-7.5q-19 0 -30.5 -9.5t-11.5 -24.5q0 -13 12 -20t31 -12l21 -6.5l23 -7.5q33 -12 60 -39t27 -87q0 -77 -50 -123t-133 -46q-31 0 -60 7t-57 21l-18.5 10.5t-19.5 12.5l49 113l16 -11.5t16 -9.5
q21 -12 40.5 -18.5t36.5 -6.5q19 0 31 10t12 25q0 19 -15 27t-37 14l-16.5 4t-16.5 5q-33 11 -59.5 35.5t-26.5 85.5q0 74 46 117.5t125 43.5q20 0 37.5 -2t33.5 -7q13 -3 26.5 -8t27.5 -12v0z" />
    <glyph glyph-name="u" unicode="t" horiz-adv-x="281" 
d="M199 320v-320h-136v320h-45v133h45v136h136v-136h77v-133h-77v0z" />
    <glyph glyph-name="v" unicode="u" horiz-adv-x="503" 
d="M182 454v-257q0 -42 17.5 -63t51.5 -21q35 0 52 21t17 63v257h136v-288q0 -91 -52 -137.5t-153 -46.5q-100 0 -152.5 46.5t-52.5 137.5v288h136v0z" />
    <glyph glyph-name="w" unicode="v" horiz-adv-x="490" 
d="M153 453l92 -232l93 232h152l-200 -453h-91l-199 453h153v0z" />
    <glyph glyph-name="x" unicode="w" horiz-adv-x="771" 
d="M152 453l92 -239l97 239h85l97 -246l97 246h151l-201 -453h-92l-96 249l-92 -249h-92l-198 453h152v0z" />
    <glyph glyph-name="y" unicode="x" horiz-adv-x="558" 
d="M192 246l-156 207h177l67 -93l68 93h176l-159 -207l193 -246h-181l-98 135l-99 -135h-180l192 246v0z" />
    <glyph glyph-name="z" unicode="y" horiz-adv-x="517" 
d="M186 61l-186 392h158l103 -232l100 232h156l-310 -680h-152l131 288v0z" />
    <glyph glyph-name="braceleft" unicode="z" horiz-adv-x="443" 
d="M246 133h161v-133h-390l182 320h-157v133h384l-180 -320v0z" />
    <glyph glyph-name="bar" unicode="{" horiz-adv-x="326" 
d="M173 290q29 -22 40 -49t11 -77v-136q0 -40 8 -54.5t43 -14.5l17 -1v-113q-7 1 -14 0.5t-14 -0.5t-14 -0.5t-14 -0.5q-64 0 -92.5 32t-28.5 112v166q0 41 -10.5 60.5t-36.5 26.5v108q25 6 36 24t11 52v168q0 77 26 110.5t87 33.5q11 0 21.5 -0.5t20.5 -1.5q6 0 11.5 -0.5
t10.5 -0.5v-113q-6 1 -9.5 1h-6.5q-33 0 -42.5 -10.5t-9.5 -47.5v-12v-136q0 -43 -7 -67t-27 -44q-4 -4 -8 -7.5l-9 -7.5v0z" />
    <glyph glyph-name="braceright" unicode="|" horiz-adv-x="425" 
d="M158 666h109v-833h-109v833v0z" />
    <glyph glyph-name="asciitilde" unicode="}" horiz-adv-x="326" 
d="M152 290q-28 23 -39.5 50t-11.5 76v136q0 44 -7.5 57t-44.5 13h-15v112q14 1 28 1.5t27 1.5q65 0 93 -30t28 -115v-167q0 -41 11 -60.5t37 -25.5v-108q-25 -6 -36.5 -24t-11.5 -53v-167q0 -77 -25.5 -110t-86.5 -33h-16t-16 1q-8 0 -16 0.5t-16 0.5v112q41 1 54 11t13 59
v136q0 43 7 67t27 44q4 4 8 7.5l9 7.5v0z" />
    <glyph glyph-name="bullet" unicode="~" horiz-adv-x="567" 
d="M137 561l-60 46q1 3 2.5 6.5t2.5 6.5q19 47 45.5 86.5t77.5 39.5q21 0 41.5 -8t40.5 -17q1 -1 2.5 -1.5t3.5 -1.5q18 -8 37 -15t38 -7q13 0 22.5 4.5t18.5 15.5q5 6 9.5 13.5t9.5 17.5l62 -42q0 -1 -0.5 -1.5t-0.5 -1.5q-20 -49 -51 -89.5t-83 -40.5q-13 0 -26 4t-27 9
q-6 3 -13 6t-13 7l-39.5 17t-37.5 8q-14 0 -24 -5t-18 -18q-5 -7 -10 -16.5t-10 -22.5v0z" />
    <glyph glyph-name="Adieresis" unicode="&#xc4;" 
 />
    <glyph glyph-name="Aring" unicode="&#xc5;" 
 />
    <glyph glyph-name="Ccedilla" unicode="&#xc7;" 
 />
    <glyph glyph-name="Eacute" unicode="&#xc9;" 
 />
    <glyph glyph-name="Ntilde" unicode="&#xd1;" 
 />
    <glyph glyph-name="Odieresis" unicode="&#xd6;" 
 />
    <glyph glyph-name="Udieresis" unicode="&#xdc;" 
 />
    <glyph glyph-name="aacute" unicode="&#xe1;" 
 />
    <glyph glyph-name="agrave" unicode="&#xe0;" 
 />
    <glyph glyph-name="acircumflex" unicode="&#xe2;" 
 />
    <glyph glyph-name="adieresis" unicode="&#xe4;" 
 />
    <glyph glyph-name="atilde" unicode="&#xe3;" 
 />
    <glyph glyph-name="aring" unicode="&#xe5;" 
 />
    <glyph glyph-name="ccedilla" unicode="&#xe7;" 
 />
    <glyph glyph-name="eacute" unicode="&#xe9;" 
 />
    <glyph glyph-name="egrave" unicode="&#xe8;" 
 />
    <glyph glyph-name="ecircumflex" unicode="&#xea;" 
 />
    <glyph glyph-name="edieresis" unicode="&#xeb;" 
 />
    <glyph glyph-name="iacute" unicode="&#xed;" 
 />
    <glyph glyph-name="igrave" unicode="&#xec;" 
 />
    <glyph glyph-name="icircumflex" unicode="&#xee;" 
 />
    <glyph glyph-name="idieresis" unicode="&#xef;" 
 />
    <glyph glyph-name="ntilde" unicode="&#xf1;" 
 />
    <glyph glyph-name="oacute" unicode="&#xf3;" 
 />
    <glyph glyph-name="ograve" unicode="&#xf2;" 
 />
    <glyph glyph-name="ocircumflex" unicode="&#xf4;" 
 />
    <glyph glyph-name="odieresis" unicode="&#xf6;" 
 />
    <glyph glyph-name="otilde" unicode="&#xf5;" 
 />
    <glyph glyph-name="uacute" unicode="&#xfa;" 
 />
    <glyph glyph-name="ugrave" unicode="&#xf9;" 
 />
    <glyph glyph-name="ucircumflex" unicode="&#xfb;" 
 />
    <glyph glyph-name="udieresis" unicode="&#xfc;" 
 />
    <glyph glyph-name="dagger" unicode="&#x2020;" 
 />
    <glyph glyph-name="glyph131" 
 />
    <glyph glyph-name="cent" unicode="&#xa2;" 
 />
    <glyph glyph-name="sterling" unicode="&#xa3;" 
 />
    <glyph glyph-name="section" unicode="&#xa7;" 
 />
    <glyph glyph-name="glyph135" horiz-adv-x="510" 
d="M168 286q0 40 24 68t58 28q35 0 59 -28t24 -68t-24 -68t-59 -28q-34 0 -58 28t-24 68v0z" />
    <glyph glyph-name="paragraph" unicode="&#xb6;" 
 />
    <glyph glyph-name="germandbls" unicode="&#xdf;" 
 />
    <glyph glyph-name="registered" unicode="&#xae;" 
 />
    <glyph glyph-name="copyright" unicode="&#xa9;" 
 />
    <glyph glyph-name="trademark" unicode="&#x2122;" 
 />
    <glyph glyph-name="acute" unicode="&#xb4;" 
 />
    <glyph glyph-name="dieresis" unicode="&#xa8;" 
 />
    <glyph glyph-name="notequal" unicode="&#x2260;" 
 />
    <glyph glyph-name="AE" unicode="&#xc6;" 
 />
    <glyph glyph-name="Oslash" unicode="&#xd8;" 
 />
    <glyph glyph-name="infinity" unicode="&#x221e;" 
 />
    <glyph glyph-name="plusminus" unicode="&#xb1;" 
 />
    <glyph glyph-name="lessequal" unicode="&#x2264;" 
 />
    <glyph glyph-name="greaterequal" unicode="&#x2265;" 
 />
    <glyph glyph-name="yen" unicode="&#xa5;" 
 />
    <glyph glyph-name="uni00B5" unicode="&#xb5;" 
 />
    <glyph glyph-name="partialdiff" unicode="&#x2202;" 
 />
    <glyph glyph-name="Sigma" unicode="&#x3a3;" 
 />
    <glyph glyph-name="product" unicode="&#x220f;" 
 />
    <glyph glyph-name="pi" unicode="&#x3c0;" 
 />
    <glyph glyph-name="integral" unicode="&#x222b;" 
 />
    <glyph glyph-name="ordfeminine" unicode="&#xaa;" 
 />
    <glyph glyph-name="ordmasculine" unicode="&#xba;" 
 />
    <glyph glyph-name="Omega" unicode="&#x3a9;" 
 />
    <glyph glyph-name="ae" unicode="&#xe6;" 
 />
    <glyph glyph-name="oslash" unicode="&#xf8;" 
 />
    <glyph glyph-name="questiondown" unicode="&#xbf;" 
 />
    <glyph glyph-name="exclamdown" unicode="&#xa1;" 
 />
    <glyph glyph-name="logicalnot" unicode="&#xac;" 
 />
    <glyph glyph-name="radical" unicode="&#x221a;" 
 />
    <glyph glyph-name="florin" unicode="&#x192;" 
 />
    <glyph glyph-name="approxequal" unicode="&#x2248;" 
 />
    <glyph glyph-name="uni2206" unicode="&#x2206;" 
 />
    <glyph glyph-name="guillemotleft" unicode="&#xab;" 
 />
    <glyph glyph-name="guillemotright" unicode="&#xbb;" 
 />
    <glyph glyph-name="ellipsis" unicode="&#x2026;" 
 />
    <glyph glyph-name="Agrave" unicode="&#xc0;" 
 />
    <glyph glyph-name="Atilde" unicode="&#xc3;" 
 />
    <glyph glyph-name="Otilde" unicode="&#xd5;" 
 />
    <glyph glyph-name="OE" unicode="&#x152;" 
 />
    <glyph glyph-name="oe" unicode="&#x153;" 
 />
    <glyph glyph-name="glyph177" 
 />
    <glyph glyph-name="emdash" unicode="&#x2014;" 
 />
    <glyph glyph-name="quotedblleft" unicode="&#x201c;" 
 />
    <glyph glyph-name="quotedblright" unicode="&#x201d;" 
 />
    <glyph glyph-name="quoteleft" unicode="&#x2018;" 
 />
    <glyph glyph-name="quoteright" unicode="&#x2019;" 
 />
    <glyph glyph-name="divide" unicode="&#xf7;" 
 />
    <glyph glyph-name="lozenge" unicode="&#x25ca;" 
 />
    <glyph glyph-name="ydieresis" unicode="&#xff;" 
 />
    <glyph glyph-name="Ydieresis" unicode="&#x178;" 
 />
    <glyph glyph-name="uni2215" unicode="&#x2215;" 
 />
    <glyph glyph-name="currency" unicode="&#xa4;" 
 />
    <glyph glyph-name="guilsinglleft" unicode="&#x2039;" 
 />
    <glyph glyph-name="guilsinglright" unicode="&#x203a;" 
 />
    <glyph glyph-name="uniF001" unicode="&#xf001;" 
 />
    <glyph glyph-name="uniF002" unicode="&#xf002;" 
 />
    <glyph glyph-name="daggerdbl" unicode="&#x2021;" 
 />
    <glyph glyph-name="uni2219" unicode="&#x2219;" 
 />
    <glyph glyph-name="quotesinglbase" unicode="&#x201a;" 
 />
    <glyph glyph-name="quotedblbase" unicode="&#x201e;" 
 />
    <glyph glyph-name="perthousand" unicode="&#x2030;" 
 />
    <glyph glyph-name="Acircumflex" unicode="&#xc2;" 
 />
    <glyph glyph-name="Ecircumflex" unicode="&#xca;" 
 />
    <glyph glyph-name="Aacute" unicode="&#xc1;" 
 />
    <glyph glyph-name="Edieresis" unicode="&#xcb;" 
 />
    <glyph glyph-name="Egrave" unicode="&#xc8;" 
 />
    <glyph glyph-name="Iacute" unicode="&#xcd;" 
 />
    <glyph glyph-name="Icircumflex" unicode="&#xce;" 
 />
    <glyph glyph-name="Idieresis" unicode="&#xcf;" 
 />
    <glyph glyph-name="Igrave" unicode="&#xcc;" 
 />
    <glyph glyph-name="Oacute" unicode="&#xd3;" 
 />
    <glyph glyph-name="Ocircumflex" unicode="&#xd4;" 
 />
    <glyph glyph-name="uniF000" unicode="&#xf000;" 
 />
    <glyph glyph-name="Ograve" unicode="&#xd2;" 
 />
    <glyph glyph-name="Uacute" unicode="&#xda;" 
 />
    <glyph glyph-name="Ucircumflex" unicode="&#xdb;" 
 />
    <glyph glyph-name="Ugrave" unicode="&#xd9;" 
 />
    <glyph glyph-name="dotlessi" unicode="&#x131;" 
 />
    <glyph glyph-name="tilde" unicode="&#x2dc;" 
 />
    <glyph glyph-name="circumflex" unicode="&#x2c6;" 
 />
    <glyph glyph-name="uni02C9" unicode="&#x2c9;" 
 />
    <glyph glyph-name="breve" unicode="&#x2d8;" 
 />
    <glyph glyph-name="dotaccent" unicode="&#x2d9;" 
 />
    <glyph glyph-name="ring" unicode="&#x2da;" 
 />
    <glyph glyph-name="cedilla" unicode="&#xb8;" 
 />
    <glyph glyph-name="uni02BA" unicode="&#x2ba;" 
 />
    <glyph glyph-name="ogonek" unicode="&#x2db;" 
 />
    <glyph glyph-name="caron" unicode="&#x2c7;" 
 />
    <glyph glyph-name="Lslash" unicode="&#x141;" 
 />
    <glyph glyph-name="lslash" unicode="&#x142;" 
 />
    <glyph glyph-name="Scaron" unicode="&#x160;" 
 />
    <glyph glyph-name="scaron" unicode="&#x161;" 
 />
    <glyph glyph-name="Zcaron" unicode="&#x17d;" 
 />
    <glyph glyph-name="zcaron" unicode="&#x17e;" 
 />
    <glyph glyph-name="brokenbar" unicode="&#xa6;" 
 />
    <glyph glyph-name="Eth" unicode="&#xd0;" 
 />
    <glyph glyph-name="eth" unicode="&#xf0;" 
 />
    <glyph glyph-name="Yacute" unicode="&#xdd;" 
 />
    <glyph glyph-name="yacute" unicode="&#xfd;" 
 />
    <glyph glyph-name="Thorn" unicode="&#xde;" 
 />
    <glyph glyph-name="thorn" unicode="&#xfe;" 
 />
    <glyph glyph-name="minus" unicode="&#x2212;" 
 />
    <glyph glyph-name="multiply" unicode="&#xd7;" 
 />
    <glyph glyph-name="uni00B9" unicode="&#xb9;" 
 />
    <glyph glyph-name="uni00B2" unicode="&#xb2;" 
 />
    <glyph glyph-name="uni00B3" unicode="&#xb3;" 
 />
    <glyph glyph-name="onehalf" unicode="&#xbd;" 
 />
    <glyph glyph-name="onequarter" unicode="&#xbc;" 
 />
    <glyph glyph-name="threequarters" unicode="&#xbe;" 
 />
    <glyph glyph-name="franc" unicode="&#x20a3;" 
 />
    <glyph glyph-name="Gbreve" unicode="&#x11e;" 
 />
    <glyph glyph-name="gbreve" unicode="&#x11f;" 
 />
    <glyph glyph-name="Idotaccent" unicode="&#x130;" 
 />
    <glyph glyph-name="Scedilla" unicode="&#x15e;" 
 />
    <glyph glyph-name="scedilla" unicode="&#x15f;" 
 />
    <glyph glyph-name="Cacute" unicode="&#x106;" 
 />
    <glyph glyph-name="cacute" unicode="&#x107;" 
 />
    <glyph glyph-name="Ccaron" unicode="&#x10c;" 
 />
    <glyph glyph-name="ccaron" unicode="&#x10d;" 
 />
    <glyph glyph-name="dcroat" unicode="&#x111;" 
 />
    <glyph glyph-name="arrowright" unicode="&#x2192;" 
 />
    <glyph glyph-name="house" unicode="&#x2302;" 
 />
    <glyph glyph-name="endash" unicode="&#x2013;" 
 />
    <glyph glyph-name="uni00AD" unicode="&#xad;" 
 />
    <glyph glyph-name="filledbox" unicode="&#x25a0;" 
 />
    <glyph glyph-name="glyph262" unicode="&#x2022;" 
 />
    <glyph glyph-name="macron" unicode="&#xaf;" 
 />
    <glyph glyph-name="degree" unicode="&#xb0;" 
 />
    <glyph glyph-name="periodcentered" unicode="&#xb7;" 
 />
    <glyph glyph-name="underscoredbl" unicode="&#x2017;" 
 />
    <glyph glyph-name="exclamdbl" unicode="&#x203c;" 
 />
    <glyph glyph-name="uni207F" unicode="&#x207f;" 
 />
    <glyph glyph-name="peseta" unicode="&#x20a7;" 
 />
    <glyph glyph-name="Gamma" unicode="&#x393;" 
 />
    <glyph glyph-name="Theta" unicode="&#x398;" 
 />
    <glyph glyph-name="Phi" unicode="&#x3a6;" 
 />
    <glyph glyph-name="alpha" unicode="&#x3b1;" 
 />
    <glyph glyph-name="delta" unicode="&#x3b4;" 
 />
    <glyph glyph-name="epsilon" unicode="&#x3b5;" 
 />
    <glyph glyph-name="sigma" unicode="&#x3c3;" 
 />
    <glyph glyph-name="tau" unicode="&#x3c4;" 
 />
    <glyph glyph-name="phi" unicode="&#x3c6;" 
 />
    <glyph glyph-name="arrowleft" unicode="&#x2190;" 
 />
    <glyph glyph-name="arrowup" unicode="&#x2191;" 
 />
    <glyph glyph-name="arrowdown" unicode="&#x2193;" 
 />
    <glyph glyph-name="arrowboth" unicode="&#x2194;" 
 />
    <glyph glyph-name="arrowupdn" unicode="&#x2195;" 
 />
    <glyph glyph-name="arrowupdnbse" unicode="&#x21a8;" 
 />
    <glyph glyph-name="orthogonal" unicode="&#x221f;" 
 />
    <glyph glyph-name="intersection" unicode="&#x2229;" 
 />
    <glyph glyph-name="equivalence" unicode="&#x2261;" 
 />
    <glyph glyph-name="revlogicalnot" unicode="&#x2310;" 
 />
    <glyph glyph-name="integraltp" unicode="&#x2320;" 
 />
    <glyph glyph-name="integralbt" unicode="&#x2321;" 
 />
    <glyph glyph-name="filledrect" unicode="&#x25ac;" 
 />
    <glyph glyph-name="circle" unicode="&#x25cb;" 
 />
    <glyph glyph-name="triagup" unicode="&#x25b2;" 
 />
    <glyph glyph-name="triagrt" unicode="&#x25ba;" 
 />
    <glyph glyph-name="triagdn" unicode="&#x25bc;" 
 />
    <glyph glyph-name="triaglf" unicode="&#x25c4;" 
 />
    <glyph glyph-name="invbullet" unicode="&#x25d8;" 
 />
    <glyph glyph-name="invcircle" unicode="&#x25d9;" 
 />
    <glyph glyph-name="Rcaron" unicode="&#x158;" 
 />
    <glyph glyph-name="upblock" unicode="&#x2580;" 
 />
    <glyph glyph-name="dnblock" unicode="&#x2584;" 
 />
    <glyph glyph-name="block" unicode="&#x2588;" 
 />
    <glyph glyph-name="lfblock" unicode="&#x258c;" 
 />
    <glyph glyph-name="rtblock" unicode="&#x2590;" 
 />
    <glyph glyph-name="ltshade" unicode="&#x2591;" 
 />
    <glyph glyph-name="shade" unicode="&#x2592;" 
 />
    <glyph glyph-name="dkshade" unicode="&#x2593;" 
 />
    <glyph glyph-name="smileface" unicode="&#x263a;" 
 />
    <glyph glyph-name="invsmileface" unicode="&#x263b;" 
 />
    <glyph glyph-name="sun" unicode="&#x263c;" 
 />
    <glyph glyph-name="female" unicode="&#x2640;" 
 />
    <glyph glyph-name="male" unicode="&#x2642;" 
 />
    <glyph glyph-name="spade" unicode="&#x2660;" 
 />
    <glyph glyph-name="club" unicode="&#x2663;" 
 />
    <glyph glyph-name="heart" unicode="&#x2665;" 
 />
    <glyph glyph-name="diamond" unicode="&#x2666;" 
 />
    <glyph glyph-name="musicalnote" unicode="&#x266a;" 
 />
    <glyph glyph-name="musicalnotedbl" unicode="&#x266b;" 
 />
    <glyph glyph-name="Abreve" unicode="&#x102;" 
 />
    <glyph glyph-name="abreve" unicode="&#x103;" 
 />
    <glyph glyph-name="Aogonek" unicode="&#x104;" 
 />
    <glyph glyph-name="aogonek" unicode="&#x105;" 
 />
    <glyph glyph-name="Dcaron" unicode="&#x10e;" 
 />
    <glyph glyph-name="dcaron" unicode="&#x10f;" 
 />
    <glyph glyph-name="Dcroat" unicode="&#x110;" 
 />
    <glyph glyph-name="Eogonek" unicode="&#x118;" 
 />
    <glyph glyph-name="eogonek" unicode="&#x119;" 
 />
    <glyph glyph-name="Ecaron" unicode="&#x11a;" 
 />
    <glyph glyph-name="ecaron" unicode="&#x11b;" 
 />
    <glyph glyph-name="Lacute" unicode="&#x139;" 
 />
    <glyph glyph-name="lacute" unicode="&#x13a;" 
 />
    <glyph glyph-name="Lcaron" unicode="&#x13d;" 
 />
    <glyph glyph-name="lcaron" unicode="&#x13e;" 
 />
    <glyph glyph-name="Nacute" unicode="&#x143;" 
 />
    <glyph glyph-name="nacute" unicode="&#x144;" 
 />
    <glyph glyph-name="Ncaron" unicode="&#x147;" 
 />
    <glyph glyph-name="ncaron" unicode="&#x148;" 
 />
    <glyph glyph-name="Ohungarumlaut" unicode="&#x150;" 
 />
    <glyph glyph-name="ohungarumlaut" unicode="&#x151;" 
 />
    <glyph glyph-name="Racute" unicode="&#x154;" 
 />
    <glyph glyph-name="racute" unicode="&#x155;" 
 />
    <glyph glyph-name="rcaron" unicode="&#x159;" 
 />
    <glyph glyph-name="Sacute" unicode="&#x15a;" 
 />
    <glyph glyph-name="sacute" unicode="&#x15b;" 
 />
    <glyph glyph-name="Tcommaaccent" unicode="&#x162;" 
 />
    <glyph glyph-name="tcommaaccent" unicode="&#x163;" 
 />
    <glyph glyph-name="Tcaron" unicode="&#x164;" 
 />
    <glyph glyph-name="tcaron" unicode="&#x165;" 
 />
    <glyph glyph-name="Uring" unicode="&#x16e;" 
 />
    <glyph glyph-name="uring" unicode="&#x16f;" 
 />
    <glyph glyph-name="uhungarumlaut" unicode="&#x171;" 
 />
    <glyph glyph-name="Uhungarumlaut" unicode="&#x170;" 
 />
    <glyph glyph-name="Zacute" unicode="&#x179;" 
 />
    <glyph glyph-name="zacute" unicode="&#x17a;" 
 />
    <glyph glyph-name="Zdotaccent" unicode="&#x17b;" 
 />
    <glyph glyph-name="zdotaccent" unicode="&#x17c;" 
 />
    <glyph glyph-name="Ldot" unicode="&#x13f;" 
 />
    <glyph glyph-name="ldot" unicode="&#x140;" 
 />
    <glyph glyph-name="SF100000" unicode="&#x2500;" 
 />
    <glyph glyph-name="SF110000" unicode="&#x2502;" 
 />
    <glyph glyph-name="SF010000" unicode="&#x250c;" 
 />
    <glyph glyph-name="SF030000" unicode="&#x2510;" 
 />
    <glyph glyph-name="SF020000" unicode="&#x2514;" 
 />
    <glyph glyph-name="SF040000" unicode="&#x2518;" 
 />
    <glyph glyph-name="SF080000" unicode="&#x251c;" 
 />
    <glyph glyph-name="SF090000" unicode="&#x2524;" 
 />
    <glyph glyph-name="SF060000" unicode="&#x252c;" 
 />
    <glyph glyph-name="SF070000" unicode="&#x2534;" 
 />
    <glyph glyph-name="SF050000" unicode="&#x253c;" 
 />
    <glyph glyph-name="SF430000" unicode="&#x2550;" 
 />
    <glyph glyph-name="SF240000" unicode="&#x2551;" 
 />
    <glyph glyph-name="SF510000" unicode="&#x2552;" 
 />
    <glyph glyph-name="SF520000" unicode="&#x2553;" 
 />
    <glyph glyph-name="SF390000" unicode="&#x2554;" 
 />
    <glyph glyph-name="SF220000" unicode="&#x2555;" 
 />
    <glyph glyph-name="SF210000" unicode="&#x2556;" 
 />
    <glyph glyph-name="SF250000" unicode="&#x2557;" 
 />
    <glyph glyph-name="SF500000" unicode="&#x2558;" 
 />
    <glyph glyph-name="SF490000" unicode="&#x2559;" 
 />
    <glyph glyph-name="SF380000" unicode="&#x255a;" 
 />
    <glyph glyph-name="SF280000" unicode="&#x255b;" 
 />
    <glyph glyph-name="SF270000" unicode="&#x255c;" 
 />
    <glyph glyph-name="SF260000" unicode="&#x255d;" 
 />
    <glyph glyph-name="SF360000" unicode="&#x255e;" 
 />
    <glyph glyph-name="SF370000" unicode="&#x255f;" 
 />
    <glyph glyph-name="SF420000" unicode="&#x2560;" 
 />
    <glyph glyph-name="SF190000" unicode="&#x2561;" 
 />
    <glyph glyph-name="SF200000" unicode="&#x2562;" 
 />
    <glyph glyph-name="SF230000" unicode="&#x2563;" 
 />
    <glyph glyph-name="SF470000" unicode="&#x2564;" 
 />
    <glyph glyph-name="SF480000" unicode="&#x2565;" 
 />
    <glyph glyph-name="SF410000" unicode="&#x2566;" 
 />
    <glyph glyph-name="SF450000" unicode="&#x2567;" 
 />
    <glyph glyph-name="SF460000" unicode="&#x2568;" 
 />
    <glyph glyph-name="SF400000" unicode="&#x2569;" 
 />
    <glyph glyph-name="SF540000" unicode="&#x256a;" 
 />
    <glyph glyph-name="SF530000" unicode="&#x256b;" 
 />
    <glyph glyph-name="SF440000" unicode="&#x256c;" 
 />
    </font>
</defs>
</svg>
